<svg xmlns="http://www.w3.org/2000/svg" width="980" height="720" viewBox="0 0 980 720" role="img" aria-label="Visão de arquitetura">
  <rect width="980" height="720" rx="24" fill="#070b14"/>
  <rect x="1" y="1" width="978" height="718" rx="24" fill="none" stroke="#1e293b"/>

  <text x="48" y="56" font-family="Segoe UI, Arial, sans-serif" font-size="22" font-weight="700" fill="#f8fafc">Mentalidade de Arquitetura</text>
  <text x="48" y="84" font-family="Segoe UI, Arial, sans-serif" font-size="14" fill="#64748b">Da inteligência à persistência — camadas claras e ownership explícito</text>

  <rect x="365" y="120" width="250" height="64" rx="14" fill="#111827" stroke="#22d3ee" stroke-width="1.5"/>
  <text x="490" y="148" text-anchor="middle" font-family="Segoe UI, Arial, sans-serif" font-size="12" fill="#67e8f9" letter-spacing="2">INTELIGÊNCIA</text>
  <text x="490" y="170" text-anchor="middle" font-family="Segoe UI, Arial, sans-serif" font-size="18" font-weight="700" fill="#f8fafc">LLM</text>

  <line x1="490" y1="184" x2="490" y2="220" stroke="#22d3ee" stroke-width="2"/>
  <polygon points="490,226 484,214 496,214" fill="#22d3ee"/>

  <rect x="365" y="230" width="250" height="64" rx="14" fill="#111827" stroke="#38bdf8" stroke-width="1.5"/>
  <text x="490" y="258" text-anchor="middle" font-family="Segoe UI, Arial, sans-serif" font-size="12" fill="#7dd3fc" letter-spacing="2">RACIOCÍNIO</text>
  <text x="490" y="280" text-anchor="middle" font-family="Segoe UI, Arial, sans-serif" font-size="18" font-weight="700" fill="#f8fafc">Agentes de IA</text>

  <line x1="490" y1="294" x2="490" y2="330" stroke="#38bdf8" stroke-width="2"/>
  <polygon points="490,336 484,324 496,324" fill="#38bdf8"/>

  <rect x="320" y="340" width="340" height="72" rx="14" fill="#111827" stroke="#818cf8" stroke-width="1.5"/>
  <text x="490" y="370" text-anchor="middle" font-family="Segoe UI, Arial, sans-serif" font-size="12" fill="#a5b4fc" letter-spacing="2">ORQUESTRAÇÃO</text>
  <text x="490" y="394" text-anchor="middle" font-family="Segoe UI, Arial, sans-serif" font-size="18" font-weight="700" fill="#f8fafc">LangGraph · MCP · Tools</text>

  <path d="M490 412 L490 440 L180 440 L180 470" fill="none" stroke="#334155" stroke-width="2"/>
  <path d="M490 412 L490 440 L490 470" fill="none" stroke="#334155" stroke-width="2"/>
  <path d="M490 412 L490 440 L800 440 L800 470" fill="none" stroke="#334155" stroke-width="2"/>

  <rect x="70" y="470" width="220" height="70" rx="14" fill="#111827" stroke="#475569"/>
  <text x="180" y="500" text-anchor="middle" font-family="Segoe UI, Arial, sans-serif" font-size="12" fill="#94a3b8" letter-spacing="1">FERRAMENTAS</text>
  <text x="180" y="522" text-anchor="middle" font-family="Segoe UI, Arial, sans-serif" font-size="16" font-weight="650" fill="#e2e8f0">GitLab · Jira · APIs</text>

  <rect x="380" y="470" width="220" height="70" rx="14" fill="#111827" stroke="#475569"/>
  <text x="490" y="500" text-anchor="middle" font-family="Segoe UI, Arial, sans-serif" font-size="12" fill="#94a3b8" letter-spacing="1">SERVIÇOS</text>
  <text x="490" y="522" text-anchor="middle" font-family="Segoe UI, Arial, sans-serif" font-size="16" font-weight="650" fill="#e2e8f0">Backend · Microsserviços</text>

  <rect x="690" y="470" width="220" height="70" rx="14" fill="#111827" stroke="#475569"/>
  <text x="800" y="500" text-anchor="middle" font-family="Segoe UI, Arial, sans-serif" font-size="12" fill="#94a3b8" letter-spacing="1">SISTEMAS</text>
  <text x="800" y="522" text-anchor="middle" font-family="Segoe UI, Arial, sans-serif" font-size="16" font-weight="650" fill="#e2e8f0">Integrações · Gateway</text>

  <path d="M180 540 L180 575 L490 575 L490 600" fill="none" stroke="#334155" stroke-width="2"/>
  <path d="M490 540 L490 600" fill="none" stroke="#334155" stroke-width="2"/>
  <path d="M800 540 L800 575 L490 575" fill="none" stroke="#334155" stroke-width="2"/>

  <rect x="320" y="600" width="340" height="72" rx="14" fill="#111827" stroke="#22d3ee" stroke-width="1.5"/>
  <text x="490" y="630" text-anchor="middle" font-family="Segoe UI, Arial, sans-serif" font-size="12" fill="#67e8f9" letter-spacing="2">PERSISTÊNCIA</text>
  <text x="490" y="654" text-anchor="middle" font-family="Segoe UI, Arial, sans-serif" font-size="18" font-weight="700" fill="#f8fafc">PostgreSQL · Redis</text>
</svg>
